<svg width="22" height="28" viewBox="0 0 22 28" fill="none" xmlns="http://www.w3.org/2000/svg">
<path d="M11.5 8.60938C14.4531 8.60938 16.8906 11.0469 16.8906 14C16.8906 17 14.4531 19.3906 11.5 19.3906C8.5 19.3906 6.10938 17 6.10938 14C6.10938 11.0469 8.5 8.60938 11.5 8.60938ZM11.5 17.5156C13.4219 17.5156 14.9688 15.9688 14.9688 14C14.9688 12.0781 13.4219 10.5312 11.5 10.5312C9.53125 10.5312 7.98438 12.0781 7.98438 14C7.98438 15.9688 9.57812 17.5156 11.5 17.5156ZM18.3438 8.42188C18.3438 9.125 17.7812 9.6875 17.0781 9.6875C16.375 9.6875 15.8125 9.125 15.8125 8.42188C15.8125 7.71875 16.375 7.15625 17.0781 7.15625C17.7812 7.15625 18.3438 7.71875 18.3438 8.42188ZM21.9062 9.6875C22 11.4219 22 16.625 21.9062 18.3594C21.8125 20.0469 21.4375 21.5 20.2188 22.7656C19 23.9844 17.5 24.3594 15.8125 24.4531C14.0781 24.5469 8.875 24.5469 7.14062 24.4531C5.45312 24.3594 4 23.9844 2.73438 22.7656C1.51562 21.5 1.14062 20.0469 1.04688 18.3594C0.953125 16.625 0.953125 11.4219 1.04688 9.6875C1.14062 8 1.51562 6.5 2.73438 5.28125C4 4.0625 5.45312 3.6875 7.14062 3.59375C8.875 3.5 14.0781 3.5 15.8125 3.59375C17.5 3.6875 19 4.0625 20.2188 5.28125C21.4375 6.5 21.8125 8 21.9062 9.6875ZM19.6562 20.1875C20.2188 18.8281 20.0781 15.5469 20.0781 14C20.0781 12.5 20.2188 9.21875 19.6562 7.8125C19.2812 6.92188 18.5781 6.17188 17.6875 5.84375C16.2812 5.28125 13 5.42188 11.5 5.42188C9.95312 5.42188 6.67188 5.28125 5.3125 5.84375C4.375 6.21875 3.67188 6.92188 3.29688 7.8125C2.73438 9.21875 2.875 12.5 2.875 14C2.875 15.5469 2.73438 18.8281 3.29688 20.1875C3.67188 21.125 4.375 21.8281 5.3125 22.2031C6.67188 22.7656 9.95312 22.625 11.5 22.625C13 22.625 16.2812 22.7656 17.6875 22.2031C18.5781 21.8281 19.3281 21.125 19.6562 20.1875Z" fill="#484D48"/>
</svg>
