<svg width="21" height="28" viewBox="0 0 21 28" fill="none" xmlns="http://www.w3.org/2000/svg">
<path d="M19.5 3.5C20.2969 3.5 21 4.20312 21 5.04688V23C21 23.8438 20.2969 24.5 19.5 24.5H1.45312C0.65625 24.5 0 23.8438 0 23V5.04688C0 4.20312 0.65625 3.5 1.45312 3.5H19.5ZM6.32812 21.5V11.5156H3.23438V21.5H6.32812ZM4.78125 10.1094C5.76562 10.1094 6.5625 9.3125 6.5625 8.32812C6.5625 7.34375 5.76562 6.5 4.78125 6.5C3.75 6.5 2.95312 7.34375 2.95312 8.32812C2.95312 9.3125 3.75 10.1094 4.78125 10.1094ZM18 21.5V16.0156C18 13.3438 17.3906 11.2344 14.25 11.2344C12.75 11.2344 11.7188 12.0781 11.2969 12.875H11.25V11.5156H8.29688V21.5H11.3906V16.5781C11.3906 15.2656 11.625 14 13.2656 14C14.8594 14 14.8594 15.5 14.8594 16.625V21.5H18Z" fill="white"/>
</svg>
