<svg width="24" height="28" viewBox="0 0 24 28" fill="none" xmlns="http://www.w3.org/2000/svg">
<path d="M21.5156 9.125C21.5156 9.35938 21.5156 9.54688 21.5156 9.78125C21.5156 16.2969 16.5938 23.75 7.54688 23.75C4.73438 23.75 2.15625 22.9531 0 21.5469C0.375 21.5938 0.75 21.6406 1.17188 21.6406C3.46875 21.6406 5.57812 20.8438 7.26562 19.5312C5.10938 19.4844 3.28125 18.0781 2.67188 16.1094C3 16.1562 3.28125 16.2031 3.60938 16.2031C4.03125 16.2031 4.5 16.1094 4.875 16.0156C2.625 15.5469 0.9375 13.5781 0.9375 11.1875V11.1406C1.59375 11.5156 2.39062 11.7031 3.1875 11.75C1.82812 10.8594 0.984375 9.35938 0.984375 7.67188C0.984375 6.73438 1.21875 5.89062 1.64062 5.1875C4.07812 8.14062 7.73438 10.1094 11.8125 10.3438C11.7188 9.96875 11.6719 9.59375 11.6719 9.21875C11.6719 6.5 13.875 4.29688 16.5938 4.29688C18 4.29688 19.2656 4.85938 20.2031 5.84375C21.2812 5.60938 22.3594 5.1875 23.2969 4.625C22.9219 5.79688 22.1719 6.73438 21.1406 7.34375C22.125 7.25 23.1094 6.96875 23.9531 6.59375C23.2969 7.57812 22.4531 8.42188 21.5156 9.125Z" fill="white"/>
</svg>
