<svg width="60" height="60" viewBox="0 0 60 60" fill="none" xmlns="http://www.w3.org/2000/svg">
<circle cx="30" cy="30" r="29.5" fill="white" stroke="#EEEEEE"/>
<path d="M32 36.32C30.9093 35.7928 29.9726 34.9939 29.28 34H21V22H39V24.26C39.8096 24.829 40.4909 25.5614 41 26.41V22C41 21.4696 40.7893 20.9609 40.4142 20.5858C40.0391 20.2107 39.5304 20 39 20H21C20.4696 20 19.9609 20.2107 19.5858 20.5858C19.2107 20.9609 19 21.4696 19 22V34C19 34.5304 19.2107 35.0391 19.5858 35.4142C19.9609 35.7893 20.4696 36 21 36H28V38H26V40H34V38H32V36.32Z" fill="#4DB648"/>
<path d="M35 24C33.8133 24 32.6533 24.3519 31.6666 25.0112C30.6799 25.6705 29.9109 26.6075 29.4567 27.7039C29.0026 28.8003 28.8838 30.0067 29.1153 31.1705C29.3468 32.3344 29.9182 33.4035 30.7574 34.2426C31.5965 35.0818 32.6656 35.6532 33.8295 35.8847C34.9933 36.1162 36.1997 35.9974 37.2961 35.5433C38.3925 35.0892 39.3295 34.3201 39.9888 33.3334C40.6481 32.3467 41 31.1867 41 30C41 28.4087 40.3679 26.8826 39.2426 25.7574C38.1174 24.6321 36.5913 24 35 24ZM35 31.5C34.7033 31.5 34.4133 31.412 34.1666 31.2472C33.92 31.0824 33.7277 30.8481 33.6142 30.574C33.5007 30.2999 33.4709 29.9983 33.5288 29.7074C33.5867 29.4164 33.7296 29.1491 33.9393 28.9393C34.1491 28.7296 34.4164 28.5867 34.7074 28.5288C34.9983 28.4709 35.2999 28.5006 35.574 28.6142C35.8481 28.7277 36.0824 28.92 36.2472 29.1666C36.412 29.4133 36.5 29.7033 36.5 30C36.5 30.3978 36.342 30.7794 36.0607 31.0607C35.7794 31.342 35.3978 31.5 35 31.5Z" fill="#4DB648"/>
</svg>
