<svg width="32" height="32" viewBox="0 0 32 32" fill="none" xmlns="http://www.w3.org/2000/svg">
<path fill-rule="evenodd" clip-rule="evenodd" d="M9.59995 6.0001C9.59995 4.83314 10.0635 3.71399 10.8887 2.88883C11.7138 2.06367 12.833 1.6001 14 1.6001H18C19.1669 1.6001 20.2861 2.06367 21.1112 2.88883C21.9364 3.71399 22.4 4.83314 22.4 6.0001V6.7089C23.3152 6.7969 24.224 6.9041 25.1296 7.0289C27.2848 7.3313 28.7999 9.2001 28.7999 11.3121V16.8625C28.7999 18.6641 27.6895 20.3681 25.8719 20.9265C22.7488 21.8849 19.4336 22.4001 16 22.4001C12.5664 22.4001 9.24955 21.8849 6.12795 20.9265C4.31035 20.3681 3.19995 18.6641 3.19995 16.8625V11.3121C3.19995 9.1985 4.71515 7.3297 6.87035 7.0305C7.77787 6.90427 8.68794 6.79704 9.59995 6.7089V6.0001ZM20 6.0001V6.5201C17.3357 6.35978 14.6642 6.35978 12 6.5201V6.0001C12 4.8961 12.896 4.0001 14 4.0001H18C19.104 4.0001 20 4.8961 20 6.0001ZM16 16.0001C15.5756 16.0001 15.1686 16.1687 14.8686 16.4687C14.5685 16.7688 14.4 17.1758 14.4 17.6001V17.6161C14.4 18.0404 14.5685 18.4474 14.8686 18.7475C15.1686 19.0475 15.5756 19.2161 16 19.2161H16.016C16.4403 19.2161 16.8473 19.0475 17.1473 18.7475C17.4474 18.4474 17.616 18.0404 17.616 17.6161V17.6001C17.616 17.1758 17.4474 16.7688 17.1473 16.4687C16.8473 16.1687 16.4403 16.0001 16.016 16.0001H16Z" fill="#4DB648"/>
<path d="M4.80005 24.0881V22.9937C5.00165 23.0785 5.20805 23.1537 5.42405 23.2209C8.77125 24.2481 12.3248 24.8001 16 24.8001C19.6753 24.8001 23.2289 24.2481 26.5761 23.2209C26.7921 23.1553 26.9985 23.0785 27.2001 22.9937V24.0881C27.2001 26.2433 25.6241 28.1361 23.4193 28.3857C18.4887 28.9407 13.5114 28.9407 8.58085 28.3857C6.37605 28.1361 4.80005 26.2433 4.80005 24.0881Z" fill="#4DB648"/>
</svg>
