<svg width="90" height="90" viewBox="0 0 90 90" fill="none" xmlns="http://www.w3.org/2000/svg">
<circle cx="45" cy="45" r="44.25" fill="white" stroke="#EEEEEE" stroke-width="1.5"/>
<path d="M38.7658 43.0667C36.865 43.0667 35.0422 42.3116 33.6982 40.9676C32.3541 39.6236 31.5991 37.8008 31.5991 35.9V30.1667C31.5991 29.7866 31.7501 29.422 32.0189 29.1532C32.2877 28.8844 32.6523 28.7334 33.0324 28.7334H34.4658C34.8459 28.7334 35.2105 28.5824 35.4793 28.3136C35.7481 28.0448 35.8991 27.6802 35.8991 27.3C35.8991 26.9199 35.7481 26.5553 35.4793 26.2865C35.2105 26.0177 34.8459 25.8667 34.4658 25.8667H33.0324C31.892 25.8667 30.7983 26.3197 29.9919 27.1261C29.1855 27.9325 28.7324 29.0263 28.7324 30.1667V35.9C28.7343 37.5193 29.1291 39.114 29.8831 40.547C30.6371 41.9801 31.7276 43.2087 33.0611 44.1274C34.3422 45.2569 35.3812 46.6343 36.1154 48.1764C36.8495 49.7186 37.2635 51.3935 37.3324 53.1C37.3324 55.761 38.3895 58.3131 40.2711 60.1947C42.1527 62.0763 44.7048 63.1334 47.3658 63.1334C50.0268 63.1334 52.5788 62.0763 54.4604 60.1947C56.342 58.3131 57.3991 55.761 57.3991 53.1V51.466C58.7502 51.1172 59.9278 50.2875 60.711 49.1326C61.4942 47.9776 61.8292 46.5767 61.6534 45.1923C61.4776 43.808 60.8029 42.5353 59.7558 41.6128C58.7088 40.6904 57.3612 40.1814 55.9658 40.1814C54.5703 40.1814 53.2228 40.6904 52.1757 41.6128C51.1286 42.5353 50.454 43.808 50.2781 45.1923C50.1023 46.5767 50.4374 47.9776 51.2206 49.1326C52.0038 50.2875 53.1813 51.1172 54.5324 51.466V53.1C54.5324 55.0008 53.7774 56.8236 52.4334 58.1676C51.0893 59.5116 49.2665 60.2667 47.3658 60.2667C45.465 60.2667 43.6422 59.5116 42.2982 58.1676C40.9541 56.8236 40.1991 55.0008 40.1991 53.1C40.2716 51.3913 40.6901 49.7151 41.4292 48.1729C42.1684 46.6306 43.2127 45.2543 44.4991 44.1274C45.8273 43.2055 46.9122 41.9755 47.6611 40.5426C48.41 39.1098 48.8005 37.5168 48.7991 35.9V30.1667C48.7991 29.0263 48.3461 27.9325 47.5397 27.1261C46.7332 26.3197 45.6395 25.8667 44.4991 25.8667H43.0658C42.6856 25.8667 42.321 26.0177 42.0522 26.2865C41.7834 26.5553 41.6324 26.9199 41.6324 27.3C41.6324 27.6802 41.7834 28.0448 42.0522 28.3136C42.321 28.5824 42.6856 28.7334 43.0658 28.7334H44.4991C44.8792 28.7334 45.2438 28.8844 45.5126 29.1532C45.7814 29.422 45.9324 29.7866 45.9324 30.1667V35.9C45.9324 36.8412 45.7471 37.7731 45.3869 38.6426C45.0267 39.5121 44.4988 40.3021 43.8334 40.9676C43.1679 41.6331 42.3778 42.161 41.5083 42.5212C40.6388 42.8813 39.7069 43.0667 38.7658 43.0667ZM55.9658 48.8C55.2055 48.8 54.4763 48.498 53.9387 47.9604C53.4011 47.4228 53.0991 46.6937 53.0991 45.9334C53.0991 45.1731 53.4011 44.4439 53.9387 43.9063C54.4763 43.3687 55.2055 43.0667 55.9658 43.0667C56.7261 43.0667 57.4552 43.3687 57.9928 43.9063C58.5304 44.4439 58.8324 45.1731 58.8324 45.9334C58.8324 46.6937 58.5304 47.4228 57.9928 47.9604C57.4552 48.498 56.7261 48.8 55.9658 48.8Z" fill="#4DB648"/>
</svg>
