<svg width="90" height="90" viewBox="0 0 90 90" fill="none" xmlns="http://www.w3.org/2000/svg">
<circle cx="45" cy="45" r="44.25" fill="white" stroke="#EEEEEE" stroke-width="1.5"/>
<g clip-path="url(#clip0_881_733)">
<path d="M41.1667 29.6406V33.4688H37.375C36.4745 33.4688 35.75 34.2002 35.75 35.1094V38.3906C35.75 39.2998 36.4745 40.0312 37.375 40.0312H41.1667V43.8594C41.1667 44.7686 41.8911 45.5 42.7917 45.5H46.0417C46.9422 45.5 47.6667 44.7686 47.6667 43.8594V40.0312H51.4583C52.3589 40.0312 53.0833 39.2998 53.0833 38.3906V35.1094C53.0833 34.2002 52.3589 33.4688 51.4583 33.4688H47.6667V29.6406C47.6667 28.7314 46.9422 28 46.0417 28H42.7917C41.8911 28 41.1667 28.7314 41.1667 29.6406ZM63.8964 54.8105C65.1016 53.915 65.3589 52.2061 64.4719 50.9893C63.5849 49.7725 61.8922 49.5127 60.687 50.4082L52.5823 56.4375H44.4167C43.8208 56.4375 43.3333 55.9453 43.3333 55.3438C43.3333 54.7422 43.8208 54.25 44.4167 54.25H49.8333C51.0318 54.25 52 53.2725 52 52.0625C52 50.8525 51.0318 49.875 49.8333 49.875H39.1151C37.1448 49.875 35.2354 50.5518 33.6984 51.7891L30.6583 54.25H28.1667C26.9682 54.25 26 55.2275 26 56.4375V60.8125C26 62.0225 26.9682 63 28.1667 63H49.8672C51.8307 63 53.7469 62.3643 55.3313 61.1885L63.9031 54.8105H63.8964Z" fill="#4DB648"/>
</g>
<defs>
<clipPath id="clip0_881_733">
<rect width="39" height="35" fill="white" transform="translate(26 28)"/>
</clipPath>
</defs>
</svg>
