<svg width="90" height="90" viewBox="0 0 90 90" fill="none" xmlns="http://www.w3.org/2000/svg">
<circle cx="45" cy="45" r="44.25" fill="white" stroke="#EEEEEE" stroke-width="1.5"/>
<path fill-rule="evenodd" clip-rule="evenodd" d="M45.4993 36.0207C45.4993 38.8404 43.2149 41.1248 40.3952 41.1248C37.5755 41.1248 35.291 38.8404 35.291 36.0207C35.291 33.201 37.5755 30.9165 40.3952 30.9165C43.2149 30.9165 45.4993 33.201 45.4993 36.0207ZM30.916 46.5207C30.916 43.4173 37.2313 41.854 40.3952 41.854C42.361 41.854 45.5431 42.4578 47.6723 43.6587C46.357 44.3463 45.2215 45.3329 44.3568 46.5391C43.4921 47.7454 42.9224 49.1376 42.6935 50.604H30.916V46.5207ZM49.8743 44.7707C49.8743 44.5773 49.9512 44.3918 50.0879 44.2551C50.2247 44.1183 50.4101 44.0415 50.6035 44.0415H53.5202C53.7136 44.0415 53.899 44.1183 54.0358 44.2551C54.1725 44.3918 54.2493 44.5773 54.2493 44.7707C54.2493 44.9641 54.1725 45.1495 54.0358 45.2863C53.899 45.423 53.7136 45.4998 53.5202 45.4998H52.791V47.0092C53.6356 47.1304 54.4361 47.4624 55.1185 47.9746L56.135 46.9582L55.9213 46.7445C55.7885 46.607 55.715 46.4228 55.7167 46.2316C55.7183 46.0404 55.795 45.8576 55.9302 45.7224C56.0654 45.5872 56.2483 45.5105 56.4395 45.5088C56.6307 45.5072 56.8148 45.5807 56.9524 45.7135L58.4107 47.1718C58.5435 47.3093 58.617 47.4935 58.6154 47.6847C58.6137 47.8759 58.537 48.0588 58.4018 48.194C58.2666 48.3292 58.0837 48.4059 57.8926 48.4075C57.7014 48.4092 57.5172 48.3357 57.3797 48.2029L57.166 47.9892L56.1496 49.0057C56.6618 49.6881 56.9938 50.4886 57.115 51.3332H58.6243V50.604C58.6243 50.4106 58.7012 50.2251 58.8379 50.0884C58.9747 49.9517 59.1601 49.8748 59.3535 49.8748C59.5469 49.8748 59.7324 49.9517 59.8691 50.0884C60.0059 50.2251 60.0827 50.4106 60.0827 50.604V53.5207C60.0827 53.7141 60.0059 53.8995 59.8691 54.0363C59.7324 54.173 59.5469 54.2498 59.3535 54.2498C59.1601 54.2498 58.9747 54.173 58.8379 54.0363C58.7012 53.8995 58.6243 53.7141 58.6243 53.5207V52.7915H57.115C57.0191 53.4605 56.7906 54.1036 56.4427 54.683L57.8952 56.1355L58.1088 55.9218C58.2463 55.789 58.4305 55.7155 58.6217 55.7172C58.8129 55.7188 58.9958 55.7955 59.131 55.9307C59.2662 56.0659 59.3429 56.2488 59.3445 56.44C59.3462 56.6311 59.2727 56.8153 59.1399 56.9529L57.6815 58.4112C57.544 58.544 57.3598 58.6175 57.1686 58.6158C56.9775 58.6142 56.7946 58.5375 56.6594 58.4023C56.5242 58.2671 56.4475 58.0842 56.4458 57.893C56.4442 57.7019 56.5177 57.5177 56.6505 57.3801L56.8641 57.1665L55.5166 55.8197C54.76 56.5172 53.8096 56.9687 52.791 57.1147V58.6248H53.5202C53.7136 58.6248 53.899 58.7017 54.0358 58.8384C54.1725 58.9751 54.2493 59.1606 54.2493 59.354C54.2493 59.5474 54.1725 59.7329 54.0358 59.8696C53.899 60.0063 53.7136 60.0832 53.5202 60.0832H50.6035C50.4101 60.0832 50.2247 60.0063 50.0879 59.8696C49.9512 59.7329 49.8743 59.5474 49.8743 59.354C49.8743 59.1606 49.9512 58.9751 50.0879 58.8384C50.2247 58.7017 50.4101 58.6248 50.6035 58.6248H51.3327V57.1155C50.4881 56.9943 49.6876 56.6623 49.0052 56.15L47.9887 57.1665L48.2024 57.3801C48.3352 57.5177 48.4087 57.7019 48.407 57.893C48.4054 58.0842 48.3287 58.2671 48.1935 58.4023C48.0583 58.5375 47.8754 58.6142 47.6842 58.6158C47.493 58.6175 47.3088 58.544 47.1713 58.4112L45.713 56.9529C45.5802 56.8153 45.5067 56.6311 45.5083 56.44C45.51 56.2488 45.5867 56.0659 45.7219 55.9307C45.8571 55.7955 46.04 55.7188 46.2311 55.7172C46.4223 55.7155 46.6065 55.789 46.744 55.9218L46.9577 56.1355L47.9741 55.119C47.4619 54.4366 47.1299 53.6361 47.0087 52.7915H45.4993V53.5207C45.4993 53.7141 45.4225 53.8995 45.2858 54.0363C45.149 54.173 44.9636 54.2498 44.7702 54.2498C44.5768 54.2498 44.3913 54.173 44.2546 54.0363C44.1178 53.8995 44.041 53.7141 44.041 53.5207V50.604C44.041 50.4106 44.1178 50.2251 44.2546 50.0884C44.3913 49.9517 44.5768 49.8748 44.7702 49.8748C44.9636 49.8748 45.149 49.9517 45.2858 50.0884C45.4225 50.2251 45.4993 50.4106 45.4993 50.604V51.3332H47.0087C47.1299 50.4886 47.4619 49.6881 47.9741 49.0057L46.9577 47.9892L46.744 48.2029C46.6065 48.3357 46.4223 48.4092 46.2311 48.4075C46.04 48.4059 45.8571 48.3292 45.7219 48.194C45.5867 48.0588 45.51 47.8759 45.5083 47.6847C45.5067 47.4935 45.5802 47.3093 45.713 47.1718L47.1713 45.7135C47.3088 45.5807 47.493 45.5072 47.6842 45.5088C47.8754 45.5105 48.0583 45.5872 48.1935 45.7224C48.3287 45.8576 48.4054 46.0404 48.407 46.2316C48.4087 46.4228 48.3352 46.607 48.2024 46.7445L47.9887 46.9582L49.0052 47.9746C49.6876 47.4624 50.4881 47.1304 51.3327 47.0092V45.4998H50.6035C50.4101 45.4998 50.2247 45.423 50.0879 45.2863C49.9512 45.1495 49.8743 44.9641 49.8743 44.7707Z" fill="#4DB648"/>
</svg>
