<svg width="60" height="60" viewBox="0 0 60 60" fill="none" xmlns="http://www.w3.org/2000/svg">
<circle cx="30" cy="30" r="29.5" fill="white" stroke="#EEEEEE"/>
<path d="M36.8571 14.0816C36.231 14.3427 35.7722 14.769 35.4969 15.3446C35.3458 15.6537 35.3296 15.7389 35.3296 16.1972C35.3296 16.6555 35.3458 16.7355 35.4969 17.0552C35.6696 17.4176 36.4631 18.3715 36.8787 18.7233C37.5157 19.2615 38.4009 19.3628 39.189 18.9844C39.6316 18.7712 40.2199 18.1743 40.3765 17.7693C40.6733 16.9913 40.5492 16.2399 40.0202 15.5791C39.3617 14.7584 38.9353 14.348 38.5574 14.1615C38.2336 14.007 38.1364 13.9856 37.6776 13.9696C37.2404 13.959 37.1216 13.975 36.8571 14.0816Z" fill="#4DB648"/>
<path d="M31.8479 16.2562C29.0627 16.6293 28.334 16.6932 25.2897 16.8105L24.3721 16.8478L24.8309 17.3114C25.5434 18.0255 25.9644 18.9528 25.9644 19.8108V20.1519L26.1425 20.1146C26.2343 20.0932 26.8982 19.9493 27.6053 19.7895C28.8522 19.507 29.2786 19.4431 32.7655 18.9954C33.3161 18.9262 34.142 18.8196 34.6008 18.7556C35.0596 18.697 35.567 18.633 35.7235 18.6171C35.8746 18.5957 36.0042 18.5638 36.0042 18.5478C36.0042 18.5318 35.8314 18.3133 35.6209 18.0682C35.0002 17.3327 34.8167 16.9171 34.8167 16.2403C34.8167 15.8992 34.8113 15.8779 34.6979 15.8832C34.6278 15.8885 33.3485 16.0537 31.8479 16.2562Z" fill="#4DB648"/>
<path d="M21.538 16.6341C20.6581 16.6927 19.9241 17.0285 19.2979 17.6573C18.5962 18.3608 18.3047 19.0322 18.2616 20.0075C18.2184 21.02 18.526 21.8674 19.1954 22.5868C19.638 23.0558 20.113 23.3542 20.7715 23.5674C21.063 23.6633 21.3221 23.7592 21.3598 23.7805C21.4084 23.8125 23.1735 25.9655 25.0951 28.3423L25.4999 28.8379L25.5917 28.5821C26.0613 27.2125 27.2488 26.2053 28.7871 25.8749L28.9329 25.8429L28.5982 25.5285C28.4093 25.358 27.9127 24.9103 27.4971 24.5319C25.4945 22.7307 24.9601 22.2511 24.917 22.2138C24.89 22.1871 24.9385 22.0379 25.0303 21.862C25.3326 21.3025 25.4513 20.8228 25.4513 20.1674C25.4513 19.5065 25.3704 19.1868 25.0627 18.5473C24.917 18.2435 24.7658 18.0464 24.4042 17.6893C23.5567 16.8526 22.7363 16.5489 21.538 16.6341ZM21.9104 17.4282C21.9752 17.6147 21.9914 18.2169 21.9374 18.478C21.9104 18.6219 21.878 18.6432 21.6567 18.6752C21.3005 18.7285 20.9496 18.9203 20.6689 19.2188C20.4206 19.4799 20.1885 19.9649 20.1885 20.2206C20.1885 20.3326 20.1562 20.3539 19.9402 20.3859C19.611 20.4338 18.9039 20.3859 18.8229 20.3059C18.7258 20.21 18.9093 19.4373 19.1414 18.9683C19.3897 18.478 19.9564 17.9025 20.4422 17.6467C20.7823 17.4708 21.4408 17.2736 21.7107 17.2683C21.8187 17.263 21.8618 17.3003 21.9104 17.4282Z" fill="#4DB648"/>
<path d="M39.8358 18.889C39.6523 19.0862 39.0099 19.3846 38.6969 19.4272L38.4324 19.4645V19.9015C38.4324 20.5037 38.481 20.541 39.1827 20.541C39.5929 20.541 39.7386 20.5197 39.852 20.4451L39.9977 20.3545V19.5551C39.9977 19.1128 39.9923 18.7557 39.9815 18.7557C39.9707 18.7557 39.906 18.8144 39.8358 18.889Z" fill="#4DB648"/>
<path d="M28.7444 26.3547C28.2478 26.4612 27.5731 26.7917 27.1952 27.1114C26.5853 27.623 26.2452 28.1133 25.9861 28.854C25.8512 29.2324 25.835 29.355 25.835 29.9732C25.8296 30.7725 25.8998 31.055 26.2506 31.7318C26.5151 32.2274 27.1628 32.9042 27.6486 33.1866C28.3287 33.5863 29.268 33.7782 30.0128 33.6769C30.9197 33.5544 31.5242 33.2559 32.2043 32.5844C32.9816 31.817 33.3216 31.0283 33.3162 29.9732C33.3162 29.3283 33.2137 28.9073 32.9168 28.3105C32.4796 27.4205 31.6537 26.733 30.639 26.4186C30.1802 26.2747 29.241 26.2428 28.7444 26.3547ZM30.5526 27.0688C31.7347 27.4631 32.6577 28.5769 32.7981 29.776C32.8305 30.0638 32.8197 30.1011 32.7225 30.1544C32.566 30.2343 31.6214 30.229 31.5134 30.1437C31.4648 30.1117 31.4162 29.9838 31.4001 29.8666C31.3353 29.307 30.7793 28.6249 30.2287 28.417C30.0668 28.3584 29.8347 28.2838 29.716 28.2625C29.5055 28.2145 29.5001 28.2092 29.4623 27.9214C29.4245 27.6443 29.4461 27.218 29.5108 26.9942C29.5378 26.9089 29.581 26.8982 29.8725 26.9249C30.0506 26.9355 30.3583 27.0048 30.5526 27.0688Z" fill="#4DB648"/>
<path d="M25.4023 31.8543C25.3052 32.723 24.4685 40.2104 24.4199 40.6314C24.4037 40.7753 24.3606 41.1803 24.3174 41.5321C24.2742 41.8785 24.2526 42.1822 24.2688 42.2089C24.285 42.2355 26.579 42.2568 29.5856 42.2568H34.8699V42.1023C34.8699 42.017 34.8106 41.4255 34.735 40.786C34.6594 40.1412 34.5731 39.3898 34.5461 39.1126C34.4921 38.633 34.4273 38.0308 34.1682 35.702C34.1089 35.1584 34.0333 34.5349 34.0063 34.3164C33.9793 34.0979 33.893 33.3039 33.812 32.5578C33.7364 31.8117 33.6608 31.1615 33.6447 31.1189C33.6339 31.0763 33.5637 31.2148 33.4935 31.4227C33.0995 32.5791 32.0847 33.581 30.9134 33.97C30.0174 34.2631 29.1106 34.2631 28.2307 33.97C27.583 33.7515 27.1674 33.4904 26.633 32.9628C26.212 32.5418 26.104 32.4032 25.8665 31.9183C25.71 31.6092 25.5858 31.3054 25.5858 31.2415C25.5858 31.1775 25.5643 31.1136 25.5373 31.0976C25.5157 31.0816 25.4509 31.4227 25.4023 31.8543ZM33.9739 37.6844C33.9901 37.7537 34.0279 38.0575 34.0603 38.3666C34.0927 38.6756 34.1682 39.3205 34.2222 39.8054C34.2762 40.2904 34.341 40.8286 34.3572 41.0045C34.3733 41.1803 34.4003 41.4255 34.4219 41.5481L34.4489 41.7772H29.6881H24.9273L24.9651 41.4415C24.9813 41.2603 25.0083 41.0471 25.0245 40.9672L25.0569 40.818L28.9756 40.8073L32.8998 40.7913L32.916 39.1766L32.9268 37.5672H33.4395C33.9253 37.5672 33.9523 37.5725 33.9739 37.6844Z" fill="#4DB648"/>
<path d="M22.2617 42.6566C21.9648 42.8058 21.7867 43.003 21.6679 43.3334C21.5708 43.6105 21.5708 43.7757 21.6733 44.0794C21.7759 44.3672 22.0242 44.6337 22.321 44.7669C22.5262 44.8628 22.877 44.8682 29.6889 44.8682C36.5225 44.8682 36.8517 44.8628 37.0622 44.7669C37.4509 44.591 37.7855 44.0954 37.7855 43.6851C37.7855 43.2854 37.4563 42.8111 37.0568 42.6246C36.8517 42.5287 36.5387 42.5233 29.6835 42.5233H22.5315L22.2617 42.6566Z" fill="#4DB648"/>
</svg>
