<svg width="60" height="60" viewBox="0 0 60 60" fill="none" xmlns="http://www.w3.org/2000/svg">
<circle cx="30" cy="30" r="29.5" fill="white" stroke="#EEEEEE"/>
<g clip-path="url(#clip0_881_700)">
<path d="M33.875 42.875H27.125C26.8063 42.875 26.5389 42.767 26.3229 42.551C26.1069 42.335 25.9993 42.068 26 41.75V28.25C26 27.9313 26.108 27.6639 26.324 27.4479C26.54 27.2319 26.807 27.1243 27.125 27.125H33.875C34.1938 27.125 34.4611 27.233 34.6771 27.449C34.8931 27.665 35.0008 27.932 35 28.25V41.75C35 42.0688 34.892 42.3361 34.676 42.5521C34.46 42.7681 34.193 42.8758 33.875 42.875ZM30.5 33.0313C30.8938 33.0313 31.2268 32.8951 31.499 32.6229C31.7713 32.3506 31.907 32.018 31.9063 31.625C31.9063 31.2313 31.7701 30.8983 31.4979 30.626C31.2256 30.3538 30.893 30.218 30.5 30.2188C30.1063 30.2188 29.7733 30.3549 29.501 30.6271C29.2288 30.8994 29.093 31.232 29.0938 31.625C29.0938 32.0188 29.2299 32.3518 29.5021 32.624C29.7744 32.8963 30.107 33.032 30.5 33.0313ZM30.5 23.75C29.9 23.75 29.3375 23.8344 28.8125 24.0031C28.2875 24.1719 27.8 24.4063 27.35 24.7063C27.0875 24.875 26.8014 24.95 26.4916 24.9313C26.1819 24.9125 25.9243 24.8 25.7188 24.5938C25.4938 24.3688 25.3906 24.1063 25.4094 23.8063C25.4281 23.5063 25.5594 23.2625 25.8031 23.075C26.4594 22.5875 27.1813 22.2031 27.9688 21.9219C28.7563 21.6406 29.6 21.5 30.5 21.5C31.4 21.5 32.2438 21.6406 33.0313 21.9219C33.8188 22.2031 34.5406 22.5875 35.1969 23.075C35.4406 23.2625 35.5719 23.5063 35.5906 23.8063C35.6094 24.1063 35.5063 24.3688 35.2813 24.5938C35.075 24.8 34.8219 24.9125 34.5219 24.9313C34.2219 24.95 33.9406 24.875 33.6781 24.7063C33.2281 24.4063 32.7361 24.1719 32.2021 24.0031C31.6681 23.8344 31.1008 23.75 30.5 23.75ZM30.5 19.25C29.3 19.25 28.1701 19.4424 27.1104 19.8271C26.0506 20.2119 25.0903 20.7508 24.2293 21.4438C23.9668 21.65 23.6761 21.7531 23.3574 21.7531C23.0386 21.7531 22.7668 21.6406 22.5418 21.4156C22.3168 21.1906 22.2136 20.9143 22.2324 20.5865C22.2511 20.2588 22.3918 19.9914 22.6543 19.7844C23.723 18.9219 24.923 18.242 26.2543 17.7448C27.5855 17.2475 29.0008 16.9993 30.5 17C32.0188 17 33.4486 17.258 34.7896 17.774C36.1306 18.29 37.3351 18.9976 38.4031 19.8969C38.6469 20.1031 38.7688 20.3563 38.7688 20.6563C38.7688 20.9563 38.6563 21.2188 38.4313 21.4438C38.2063 21.6688 37.9389 21.7768 37.6291 21.7678C37.3194 21.7588 37.0336 21.6508 36.7719 21.4438C35.9094 20.75 34.9483 20.2108 33.8885 19.826C32.8288 19.4413 31.6993 19.2493 30.5 19.25Z" fill="#4DB648"/>
</g>
<defs>
<clipPath id="clip0_881_700">
<rect width="27" height="27" fill="white" transform="translate(17 17)"/>
</clipPath>
</defs>
</svg>
