<svg width="60" height="60" viewBox="0 0 60 60" fill="none" xmlns="http://www.w3.org/2000/svg">
<circle cx="30" cy="30" r="29.5" fill="white" stroke="#EEEEEE"/>
<path d="M32.4636 17.3998C32.7005 17.8466 33.98 18.5615 35.3543 19.0083C38.4819 20.0806 41.1831 22.6274 42.3204 25.5763C42.7943 26.872 43.5525 28.0784 44.0264 28.3018C45.0689 28.838 45.0689 28.3018 44.0738 25.1295C43.0312 21.8231 39.3349 18.3381 35.8282 17.3551C32.4636 16.4168 31.8949 16.4168 32.4636 17.3998Z" fill="#4DB648"/>
<path d="M33.412 21.5108C33.7437 22.0023 34.2649 22.4491 34.6441 22.4491C35.0232 22.4491 36.0657 23.164 37.0135 24.0129C37.9139 24.9065 38.6721 25.8895 38.6721 26.247C38.6721 26.6044 39.146 27.0959 39.6672 27.4087C40.6624 27.9001 40.7098 27.8555 40.3781 26.4257C39.8094 23.7002 37.3452 21.3768 34.4545 20.8406C32.9381 20.5278 32.8907 20.5725 33.412 21.5108Z" fill="#4DB648"/>
<path d="M27.772 24.1023C26.8716 25.2193 26.8242 25.6214 27.3455 27.1852C27.4402 27.498 26.1134 29.2405 24.36 31.0724C21.5641 33.9767 21.1376 34.6916 21.1376 36.1213C21.1376 37.4171 20.8059 38.1766 19.7159 39.2043C18.7208 40.1873 18.4364 40.7234 18.7682 41.2149C19.1473 41.7511 19.479 41.617 20.8059 40.4107C21.9906 39.2937 22.7962 38.9809 24.1704 38.9809C25.7343 38.9809 26.4451 38.5788 29.7149 35.8086C32.7951 33.1724 33.5534 32.6809 34.122 33.1724C34.975 33.798 36.3493 33.4405 37.4866 32.2788C38.2448 31.4746 38.2448 31.2958 37.534 29.2405C36.5862 26.6044 34.4063 24.5044 31.6104 23.5661C28.9567 22.6725 28.9567 22.6725 27.772 24.1023ZM30.8996 30.0895C31.0418 30.3575 30.7574 31.0278 30.1888 31.5192C29.4306 32.2341 29.0988 32.3682 28.625 31.9214C28.1985 31.5192 28.2932 31.2065 28.9567 30.4916C29.9044 29.4639 30.4257 29.3746 30.8996 30.0895Z" fill="#4DB648"/>
<path d="M20.3939 23.2857C20.3169 23.2857 20.2446 23.2747 20.1771 23.2527C20.1097 23.2307 20.047 23.193 19.9892 23.1394L16.1734 19.6283C16.0578 19.5219 16 19.3956 16 19.2495C16 19.1034 16.0578 18.977 16.1734 18.8702C16.2891 18.7638 16.424 18.7106 16.5781 18.7106C16.7323 18.7106 16.8672 18.7638 16.9829 18.8702L19.8158 21.4769V15.5187C19.8158 15.368 19.8713 15.2438 19.9823 15.1463C20.0933 15.0488 20.2305 15 20.3939 15C20.5577 15 20.6952 15.0511 20.8062 15.1532C20.9172 15.2554 20.9725 15.3816 20.9721 15.532V21.4769L23.805 18.8702C23.9207 18.7638 24.0556 18.7106 24.2097 18.7106C24.3639 18.7106 24.4988 18.7638 24.6144 18.8702C24.7301 18.9766 24.7879 19.103 24.7879 19.2495C24.7879 19.396 24.7301 19.5222 24.6144 19.6283L20.7986 23.1394C20.7408 23.1926 20.6782 23.2304 20.6107 23.2527C20.5433 23.2751 20.471 23.2861 20.3939 23.2857Z" fill="#4DB648"/>
<path d="M40.6061 35.7148C40.6831 35.7148 40.7554 35.7258 40.8229 35.7478C40.8903 35.7698 40.953 35.8075 41.0108 35.8611L44.8266 39.3722C44.9422 39.4786 45 39.6049 45 39.751C45 39.8971 44.9422 40.0235 44.8266 40.1303C44.7109 40.2367 44.576 40.2899 44.4219 40.2899C44.2677 40.2899 44.1328 40.2367 44.0171 40.1303L41.1842 37.5235L41.1842 43.4818C41.1842 43.6325 41.1287 43.7567 41.0177 43.8542C40.9067 43.9517 40.7695 44.0005 40.6061 44.0005C40.4423 44.0005 40.3048 43.9494 40.1938 43.8473C40.0828 43.7451 40.0275 43.6189 40.0279 43.4685L40.0279 37.5235L37.195 40.1303C37.0793 40.2367 36.9444 40.2899 36.7903 40.2899C36.6361 40.2899 36.5012 40.2367 36.3856 40.1303C36.2699 40.0239 36.2121 39.8974 36.2121 39.751C36.2121 39.6045 36.2699 39.4782 36.3856 39.3722L40.2014 35.8611C40.2592 35.8079 40.3218 35.7701 40.3893 35.7478C40.4567 35.7254 40.529 35.7144 40.6061 35.7148Z" fill="#4DB648"/>
</svg>
