<svg width="60" height="60" viewBox="0 0 60 60" fill="none" xmlns="http://www.w3.org/2000/svg">
<circle cx="30" cy="30" r="29.5" fill="white" stroke="#EEEEEE"/>
<path d="M30 22.0002C32.1218 22.0002 34.1566 22.843 35.6569 24.3433C37.1572 25.8436 38 27.8784 38 30.0002C38 32.9602 36.3867 35.5468 34 36.9335V39.3335C34 39.6871 33.8596 40.0263 33.6095 40.2763C33.3595 40.5264 33.0203 40.6668 32.6667 40.6668H27.3334C26.9798 40.6668 26.6406 40.5264 26.3906 40.2763C26.1405 40.0263 26 39.6871 26 39.3335V36.9335C23.6134 35.5468 22 32.9602 22 30.0002C22 27.8784 22.8429 25.8436 24.3432 24.3433C25.8435 22.843 27.8783 22.0002 30 22.0002ZM32.6667 42.0002V43.3335C32.6667 43.6871 32.5262 44.0263 32.2762 44.2763C32.0261 44.5264 31.687 44.6668 31.3334 44.6668H28.6667C28.3131 44.6668 27.9739 44.5264 27.7239 44.2763C27.4739 44.0263 27.3334 43.6871 27.3334 43.3335V42.0002H32.6667ZM40.6667 28.6668H44.6667V31.3335H40.6667V28.6668ZM15.3334 28.6668H19.3334V31.3335H15.3334V28.6668ZM31.3334 15.3335V19.3335H28.6667V15.3335H31.3334ZM20.56 18.6668L23.4 21.5202L21.5067 23.4002L18.6667 20.5735L20.56 18.6668ZM36.6 21.5068L39.4267 18.6668L41.3334 20.5735L38.4934 23.4002L36.6 21.5068Z" fill="#4DB648"/>
<path d="M30 22.0002C32.1218 22.0002 34.1566 22.843 35.6569 24.3433C37.1572 25.8436 38 27.8784 38 30.0002C38 32.9602 36.3867 35.5468 34 36.9335V39.3335C34 39.6871 33.8596 40.0263 33.6095 40.2763C33.3595 40.5264 33.0203 40.6668 32.6667 40.6668H27.3334C26.9798 40.6668 26.6406 40.5264 26.3906 40.2763C26.1405 40.0263 26 39.6871 26 39.3335V36.9335C23.6134 35.5468 22 32.9602 22 30.0002C22 27.8784 22.8429 25.8436 24.3432 24.3433C25.8435 22.843 27.8783 22.0002 30 22.0002ZM32.6667 42.0002V43.3335C32.6667 43.6871 32.5262 44.0263 32.2762 44.2763C32.0261 44.5264 31.687 44.6668 31.3334 44.6668H28.6667C28.3131 44.6668 27.9739 44.5264 27.7239 44.2763C27.4739 44.0263 27.3334 43.6871 27.3334 43.3335V42.0002H32.6667ZM40.6667 28.6668H44.6667V31.3335H40.6667V28.6668ZM15.3334 28.6668H19.3334V31.3335H15.3334V28.6668ZM31.3334 15.3335V19.3335H28.6667V15.3335H31.3334ZM20.56 18.6668L23.4 21.5202L21.5067 23.4002L18.6667 20.5735L20.56 18.6668ZM36.6 21.5068L39.4267 18.6668L41.3334 20.5735L38.4934 23.4002L36.6 21.5068Z" fill="#4DB648"/>
</svg>
