<svg width="60" height="60" viewBox="0 0 60 60" fill="none" xmlns="http://www.w3.org/2000/svg">
<circle cx="30" cy="30" r="29.5" fill="white" stroke="#EEEEEE"/>
<g clip-path="url(#clip0_881_664)">
<path d="M30.9999 30.8502C30.8125 31.0364 30.5591 31.1409 30.2949 31.1409C30.0307 31.1409 29.7773 31.0364 29.5899 30.8502L26.5899 27.8502C26.1617 28.4868 25.9257 29.2331 25.9099 30.0002C25.9099 30.8091 26.1498 31.5998 26.5992 32.2724C27.0486 32.945 27.6874 33.4693 28.4347 33.7788C29.1821 34.0884 30.0045 34.1694 30.7978 34.0116C31.5912 33.8538 32.32 33.4642 32.892 32.8922C33.464 32.3202 33.8535 31.5915 34.0113 30.7981C34.1691 30.0047 34.0881 29.1823 33.7786 28.435C33.469 27.6876 32.9448 27.0489 32.2722 26.5994C31.5996 26.15 30.8088 25.9102 29.9999 25.9102C29.2965 25.9144 28.6066 26.1042 27.9999 26.4602L30.9999 29.4602C31.1802 29.6466 31.2809 29.8958 31.2809 30.1552C31.2809 30.4145 31.1802 30.6637 30.9999 30.8502Z" fill="#4DB648"/>
<path d="M30.0001 14C28.5633 14.004 27.1337 14.2025 25.7501 14.59L27.3501 18.48C29.8691 17.8913 32.5114 18.1403 34.8762 19.189C37.241 20.2378 39.1992 22.0292 40.4538 24.2915C41.7085 26.5538 42.191 29.1636 41.8284 31.7249C41.4657 34.2863 40.2776 36.6595 38.4443 38.4846C36.6109 40.3096 34.2323 41.487 31.6694 41.8381C29.1064 42.1891 26.4989 41.6947 24.2423 40.4299C21.9857 39.165 20.2031 37.1987 19.1651 34.8292C18.127 32.4598 17.89 29.8164 18.4901 27.3L14.6101 25.68C13.7051 28.9072 13.8365 32.3371 14.9857 35.4857C16.1348 38.6342 18.2437 41.3424 21.0147 43.2279C23.7857 45.1135 27.0788 46.0813 30.4294 45.9947C33.78 45.908 37.0187 44.7714 39.6886 42.7451C42.3584 40.7189 44.3246 37.9054 45.3095 34.7017C46.2944 31.4979 46.2483 28.0658 45.1778 24.8897C44.1073 21.7136 42.0664 18.9538 39.3431 16.9999C36.6199 15.046 33.3518 13.9967 30.0001 14Z" fill="#4DB648"/>
<path d="M19.9999 27.94C19.5622 30.079 19.8246 32.302 20.7481 34.2804C21.6716 36.2588 23.2073 37.8874 25.128 38.9255C27.0487 39.9636 29.2525 40.356 31.4135 40.0447C33.5745 39.7334 35.578 38.7349 37.1276 37.1969C38.6773 35.6589 39.6908 33.663 40.0184 31.5044C40.3459 29.3458 39.9701 27.1391 38.9465 25.2106C37.9229 23.2821 36.3059 21.7342 34.3345 20.7959C32.3631 19.8575 30.1421 19.5784 27.9999 20L29.6899 24.11H29.9999C31.1624 24.11 32.2989 24.4546 33.2656 25.1002C34.2323 25.7459 34.986 26.6636 35.4313 27.7375C35.8767 28.8113 35.9937 29.9931 35.7676 31.1334C35.5416 32.2738 34.9825 33.3215 34.1612 34.1442C33.3399 34.9669 32.2931 35.5278 31.1531 35.7558C30.0132 35.9838 28.8312 35.8687 27.7566 35.4252C26.682 34.9817 25.763 34.2296 25.1157 33.264C24.4684 32.2983 24.1219 31.1625 24.1199 30V29.65L19.9999 27.94Z" fill="#4DB648"/>
<path d="M20.2001 25.3402C20.2924 25.4344 20.4182 25.4883 20.5501 25.4902H24.2001L26.5501 27.8402C26.9116 27.2672 27.4099 26.793 28.0001 26.4602L25.5301 24.0002V20.5102C25.5282 20.3783 25.4743 20.2525 25.3801 20.1602L19.7901 14.5702C19.7202 14.5017 19.6317 14.4552 19.5356 14.4365C19.4396 14.4178 19.3401 14.4276 19.2496 14.4649C19.1591 14.5022 19.0816 14.5652 19.0265 14.6461C18.9715 14.7271 18.9414 14.8224 18.9401 14.9202V18.9202H15.0001C14.9022 18.9216 14.8069 18.9517 14.7259 19.0067C14.645 19.0617 14.582 19.1393 14.5447 19.2298C14.5075 19.3203 14.4976 19.4197 14.5163 19.5158C14.535 19.6119 14.5815 19.7003 14.6501 19.7702L20.2001 25.3402Z" fill="#4DB648"/>
</g>
<defs>
<clipPath id="clip0_881_664">
<rect width="36" height="36" fill="white" transform="translate(12 12)"/>
</clipPath>
</defs>
</svg>
