<svg width="239" height="93" viewBox="0 0 239 93" fill="none" xmlns="http://www.w3.org/2000/svg">
<path fill-rule="evenodd" clip-rule="evenodd" d="M57.1805 82.2576C52.6663 88.2766 43.6378 92.791 34.6093 92.791C16.0508 92.791 0 76.7403 0 56.677C0 37.1153 16.0508 21.0645 34.6093 21.0645C43.6378 21.0645 52.6663 25.5789 57.1805 31.5979H57.682V23.0709H72.7295V90.7845H57.682V82.2576H57.1805ZM36.114 79.2482C48.6536 79.2482 57.682 69.2165 57.682 56.677C57.682 44.639 48.6536 34.6072 36.114 34.6072C24.076 34.6072 14.546 44.639 14.546 56.677C14.546 69.2165 24.076 79.2482 36.114 79.2482Z" fill="#70BE44"/>
<path d="M107.335 90.7863H92.7891V36.6155H85.2654V23.0727H92.7891V0H107.335V23.0727H118.871V36.6155H107.335V90.7863Z" fill="#70BE44"/>
<path d="M167.031 35.109C165.025 34.6074 162.517 34.1058 160.51 34.1058C148.472 34.1058 141.952 43.6358 141.952 55.6738V90.7845H127.406V23.0709H141.952V30.0932H142.955C146.968 24.0742 154.993 21.0645 160.51 21.0645C162.517 21.0645 165.025 21.0645 167.031 22.0677V35.109Z" fill="#70BE44"/>
<path fill-rule="evenodd" clip-rule="evenodd" d="M184.583 60.1881C185.586 68.715 191.605 79.2482 204.144 79.2482C213.675 79.2482 218.189 75.737 222.703 68.2133L234.741 75.737C228.22 86.7719 218.189 92.791 204.144 92.791C184.583 92.791 169.535 76.7403 169.535 56.677C169.535 37.1153 184.583 21.0645 204.144 21.0645C223.706 21.0645 238.754 37.1153 238.754 56.677V60.1881H184.583ZM223.205 48.6515C220.195 41.1277 214.678 34.6072 204.646 34.6072C194.614 34.6072 188.596 41.1277 186.088 48.6515H223.205Z" fill="#70BE44"/>
</svg>
