<svg width="318" height="210" viewBox="0 0 318 210" fill="none" xmlns="http://www.w3.org/2000/svg">
<path d="M4.088 42.96C3.256 42.96 2.52 42.672 1.88 42.096C1.24 41.52 0.92 40.752 0.92 39.792C0.92 39.472 0.984 39.056 1.112 38.544L13.112 6C13.56 4.912 14.232 4.08 15.128 3.504C16.024 2.928 16.984 2.64 18.008 2.64C19.032 2.64 19.992 2.928 20.888 3.504C21.848 4.08 22.552 4.912 23 6L35.768 38.544C35.896 39.056 35.96 39.472 35.96 39.792C35.96 40.752 35.64 41.52 35 42.096C34.36 42.672 33.624 42.96 32.792 42.96C32.216 42.96 31.608 42.8 30.968 42.48C30.392 42.224 29.944 41.776 29.624 41.136L26.456 32.688C26.392 32.304 26.136 32.112 25.688 32.112H11C10.552 32.112 10.264 32.304 10.136 32.688L7.256 41.136C6.936 41.776 6.456 42.224 5.816 42.48C5.24 42.8 4.664 42.96 4.088 42.96ZM13.88 26.352H22.52C22.904 26.352 23.192 26.224 23.384 25.968C23.64 25.648 23.704 25.264 23.576 24.816L18.968 11.664C18.776 11.024 18.488 10.704 18.104 10.704C17.656 10.704 17.336 11.024 17.144 11.664L12.824 24.912C12.696 25.296 12.728 25.648 12.92 25.968C13.176 26.224 13.496 26.352 13.88 26.352ZM53.1928 42.96C50.4408 42.96 47.9768 42.32 45.8008 41.04C43.6248 39.76 41.9288 38 40.7128 35.76C39.4968 33.456 38.8888 30.896 38.8888 28.08C38.8888 25.328 39.4968 22.864 40.7128 20.688C41.9288 18.512 43.6248 16.816 45.8008 15.6C47.9768 14.32 50.4408 13.68 53.1928 13.68C54.9848 13.68 56.5848 13.968 57.9928 14.544C59.4008 15.12 60.6168 15.92 61.6407 16.944V3.504C61.6407 2.416 61.9608 1.616 62.6008 1.104C63.3048 0.527997 64.0728 0.239997 64.9048 0.239997C65.7368 0.239997 66.4728 0.527997 67.1128 1.104C67.8168 1.616 68.1688 2.416 68.1688 3.504V39.984C68.1688 40.944 67.8168 41.68 67.1128 42.192C66.4728 42.704 65.7368 42.96 64.9048 42.96C64.0728 42.96 63.3048 42.704 62.6008 42.192C61.9608 41.68 61.6407 40.944 61.6407 39.984V39.6C60.6168 40.624 59.4008 41.424 57.9928 42C56.5848 42.64 54.9848 42.96 53.1928 42.96ZM53.7688 37.008C56.2008 37.008 58.1208 36.208 59.5288 34.608C60.9368 32.944 61.6407 30.768 61.6407 28.08C61.6407 25.52 60.9368 23.472 59.5288 21.936C58.1208 20.4 56.2008 19.632 53.7688 19.632C51.2728 19.632 49.2568 20.4 47.7208 21.936C46.1848 23.472 45.4168 25.52 45.4168 28.08C45.4168 30.768 46.1848 32.944 47.7208 34.608C49.2568 36.208 51.2728 37.008 53.7688 37.008ZM86.7305 42.96C85.7705 42.96 84.8745 42.736 84.0425 42.288C83.2105 41.904 82.6025 41.296 82.2185 40.464L72.7145 18.096C72.5865 17.584 72.5225 17.2 72.5225 16.944C72.5225 15.92 72.8745 15.12 73.5785 14.544C74.2825 13.968 75.0505 13.68 75.8825 13.68C76.4585 13.68 77.0025 13.84 77.5145 14.16C78.0905 14.48 78.5065 14.992 78.7625 15.696L85.4825 33.072C85.8025 33.712 86.2185 34.032 86.7305 34.032C87.3705 34.032 87.7865 33.712 87.9785 33.072L94.6025 15.696C94.8585 14.992 95.2425 14.48 95.7545 14.16C96.3305 13.84 96.9065 13.68 97.4825 13.68C98.3785 13.68 99.1465 13.968 99.7865 14.544C100.491 15.12 100.843 15.888 100.843 16.848C100.843 17.168 100.779 17.584 100.651 18.096L91.2425 40.464C90.8585 41.296 90.2505 41.904 89.4185 42.288C88.5865 42.736 87.6905 42.96 86.7305 42.96ZM117.13 42.96C114.378 42.96 111.914 42.32 109.738 41.04C107.562 39.76 105.866 38 104.65 35.76C103.434 33.456 102.826 30.896 102.826 28.08C102.826 25.328 103.434 22.864 104.65 20.688C105.866 18.512 107.562 16.816 109.738 15.6C111.914 14.32 114.378 13.68 117.13 13.68C118.922 13.68 120.522 14 121.93 14.64C123.338 15.216 124.554 15.984 125.578 16.944C125.706 16.048 126.09 15.376 126.73 14.928C127.37 14.416 128.074 14.16 128.842 14.16C129.674 14.16 130.41 14.448 131.05 15.024C131.754 15.536 132.106 16.336 132.106 17.424V39.984C132.106 40.944 131.754 41.68 131.05 42.192C130.41 42.704 129.674 42.96 128.842 42.96C128.01 42.96 127.242 42.704 126.538 42.192C125.898 41.68 125.578 40.944 125.578 39.984V39.6C124.554 40.624 123.338 41.424 121.93 42C120.522 42.64 118.922 42.96 117.13 42.96ZM117.706 37.008C120.138 37.008 122.058 36.208 123.466 34.608C124.874 32.944 125.578 30.768 125.578 28.08C125.578 25.52 124.874 23.472 123.466 21.936C122.058 20.4 120.138 19.632 117.706 19.632C115.21 19.632 113.194 20.4 111.658 21.936C110.122 23.472 109.354 25.52 109.354 28.08C109.354 30.768 110.122 32.944 111.658 34.608C113.194 36.208 115.21 37.008 117.706 37.008ZM163.436 42.96C162.604 42.96 161.836 42.704 161.132 42.192C160.492 41.68 160.172 40.944 160.172 39.984V27.888C160.172 25.072 159.532 22.992 158.252 21.648C157.036 20.304 155.404 19.632 153.356 19.632C150.732 19.632 148.812 20.496 147.596 22.224C146.444 23.888 145.868 25.744 145.868 27.792V39.984C145.868 40.944 145.516 41.68 144.812 42.192C144.172 42.704 143.436 42.96 142.604 42.96C141.772 42.96 141.004 42.704 140.3 42.192C139.66 41.68 139.34 40.944 139.34 39.984V17.424C139.34 16.336 139.66 15.536 140.3 15.024C141.004 14.448 141.772 14.16 142.604 14.16C143.436 14.16 144.172 14.448 144.812 15.024C145.516 15.536 145.868 16.336 145.868 17.424C146.956 16.336 148.364 15.44 150.092 14.736C151.82 14.032 153.452 13.68 154.988 13.68C158.572 13.68 161.42 14.832 163.532 17.136C165.644 19.44 166.7 22.832 166.7 27.312V39.984C166.7 40.944 166.348 41.68 165.644 42.192C164.94 42.704 164.204 42.96 163.436 42.96ZM186.702 42.96C182.414 42.96 178.894 41.584 176.142 38.832C173.39 36.08 172.014 32.496 172.014 28.08C172.014 25.264 172.654 22.768 173.934 20.592C175.214 18.416 176.942 16.72 179.118 15.504C181.358 14.288 183.886 13.68 186.702 13.68C190.542 13.68 193.806 14.576 196.494 16.368C197.39 16.944 197.838 17.744 197.838 18.768C197.838 19.792 197.518 20.592 196.878 21.168C196.238 21.744 195.502 22.032 194.67 22.032C194.094 22.032 193.582 21.904 193.134 21.648C190.766 20.048 188.558 19.344 186.51 19.536C184.014 19.792 182.062 20.656 180.654 22.128C179.246 23.536 178.542 25.552 178.542 28.176C178.542 30.928 179.278 33.104 180.75 34.704C182.286 36.24 184.43 37.008 187.182 37.008C189.614 37.008 192.046 36.08 194.478 34.224C194.99 33.776 195.662 33.552 196.494 33.552C197.454 33.552 198.158 33.936 198.606 34.704C199.118 35.408 199.374 36.08 199.374 36.72C199.374 37.616 198.958 38.448 198.126 39.216C196.526 40.624 194.766 41.584 192.846 42.096C190.926 42.672 188.878 42.96 186.702 42.96ZM208.044 42.96C207.212 42.96 206.444 42.704 205.74 42.192C205.1 41.68 204.78 40.944 204.78 39.984V16.944C204.78 15.856 205.1 15.056 205.74 14.544C206.444 13.968 207.212 13.68 208.044 13.68C208.876 13.68 209.612 13.968 210.252 14.544C210.956 15.056 211.308 15.856 211.308 16.944V39.984C211.308 40.944 210.956 41.68 210.252 42.192C209.612 42.704 208.876 42.96 208.044 42.96ZM208.14 8.4C206.924 8.4 205.868 8.016 204.972 7.248C204.14 6.416 203.724 5.424 203.724 4.272C203.724 3.184 204.14 2.256 204.972 1.488C205.868 0.655997 206.924 0.239997 208.14 0.239997C209.292 0.239997 210.284 0.655997 211.116 1.488C211.948 2.256 212.364 3.184 212.364 4.272C212.364 5.424 211.948 6.416 211.116 7.248C210.284 8.016 209.292 8.4 208.14 8.4ZM243.217 42.96C242.385 42.96 241.617 42.704 240.913 42.192C240.273 41.68 239.953 40.944 239.953 39.984V27.888C239.953 25.072 239.313 22.992 238.033 21.648C236.817 20.304 235.185 19.632 233.137 19.632C230.513 19.632 228.593 20.496 227.377 22.224C226.225 23.888 225.649 25.744 225.649 27.792V39.984C225.649 40.944 225.297 41.68 224.593 42.192C223.953 42.704 223.217 42.96 222.385 42.96C221.553 42.96 220.785 42.704 220.081 42.192C219.441 41.68 219.121 40.944 219.121 39.984V17.424C219.121 16.336 219.441 15.536 220.081 15.024C220.785 14.448 221.553 14.16 222.385 14.16C223.217 14.16 223.953 14.448 224.593 15.024C225.297 15.536 225.649 16.336 225.649 17.424C226.737 16.336 228.145 15.44 229.873 14.736C231.601 14.032 233.233 13.68 234.769 13.68C238.353 13.68 241.201 14.832 243.313 17.136C245.425 19.44 246.481 22.832 246.481 27.312V39.984C246.481 40.944 246.129 41.68 245.425 42.192C244.721 42.704 243.985 42.96 243.217 42.96ZM265.523 55.44C264.179 55.44 262.675 55.312 261.011 55.056C259.347 54.8 257.715 54.256 256.115 53.424C254.899 52.784 254.291 51.792 254.291 50.448C254.291 49.68 254.547 48.976 255.059 48.336C255.635 47.696 256.339 47.376 257.171 47.376C257.747 47.376 258.323 47.536 258.899 47.856C260.115 48.496 261.331 48.944 262.547 49.2C263.763 49.456 264.947 49.584 266.099 49.584C268.403 49.584 270.387 48.976 272.051 47.76C273.715 46.608 274.547 44.752 274.547 42.192V39.504C273.459 40.592 272.179 41.424 270.707 42C269.299 42.64 267.699 42.96 265.907 42.96C263.283 42.96 260.883 42.32 258.707 41.04C256.595 39.76 254.899 38 253.619 35.76C252.403 33.52 251.795 30.992 251.795 28.176C251.795 25.36 252.403 22.832 253.619 20.592C254.835 18.352 256.499 16.592 258.611 15.312C260.723 14.032 263.123 13.488 265.811 13.68C267.667 13.808 269.299 14.192 270.707 14.832C272.179 15.408 273.459 16.208 274.547 17.232C274.547 16.336 274.835 15.6 275.411 15.024C276.051 14.448 276.851 14.16 277.811 14.16C278.771 14.16 279.539 14.448 280.115 15.024C280.755 15.6 281.075 16.336 281.075 17.232V42.384C281.075 45.328 280.371 47.76 278.963 49.68C277.619 51.664 275.763 53.104 273.395 54C271.027 54.96 268.403 55.44 265.523 55.44ZM266.675 37.008C269.107 37.008 271.027 36.208 272.435 34.608C273.843 32.944 274.547 30.768 274.547 28.08C274.547 25.52 273.843 23.472 272.435 21.936C271.027 20.4 269.107 19.632 266.675 19.632C264.179 19.632 262.163 20.4 260.627 21.936C259.091 23.472 258.323 25.552 258.323 28.176C258.323 30.736 259.059 32.848 260.531 34.512C262.067 36.176 264.115 37.008 266.675 37.008ZM6.68 119.96C5.72 119.96 4.92 119.672 4.28 119.096C3.64 118.52 3.32 117.784 3.32 116.888V83.288C3.32 82.328 3.64 81.56 4.28 80.984C4.92 80.408 5.72 80.12 6.68 80.12C7.704 80.12 8.504 80.408 9.08 80.984C9.72 81.56 10.04 82.328 10.04 83.288V92.984C10.04 94.904 10.936 95.864 12.728 95.864H26.552C28.344 95.864 29.24 94.904 29.24 92.984V83.288C29.24 82.328 29.528 81.56 30.104 80.984C30.744 80.408 31.576 80.12 32.6 80.12C33.624 80.12 34.424 80.408 35 80.984C35.64 81.56 35.96 82.328 35.96 83.288V116.888C35.96 117.784 35.64 118.52 35 119.096C34.424 119.672 33.624 119.96 32.6 119.96C31.576 119.96 30.744 119.672 30.104 119.096C29.528 118.52 29.24 117.784 29.24 116.888V104.696C29.24 102.776 28.344 101.816 26.552 101.816H12.728C10.936 101.816 10.04 102.776 10.04 104.696V116.888C10.04 117.784 9.72 118.52 9.08 119.096C8.504 119.672 7.704 119.96 6.68 119.96ZM57.434 119.96C52.634 119.96 48.89 118.584 46.202 115.832C43.514 113.08 42.17 109.368 42.17 104.696C42.17 100.6 43.514 97.24 46.202 94.616C48.954 91.992 52.474 90.68 56.762 90.68C60.922 90.68 64.25 91.896 66.746 94.328C69.242 96.696 70.49 99.64 70.49 103.16C70.49 104.568 70.106 105.624 69.338 106.328C68.634 107.032 67.706 107.384 66.554 107.384H49.85C49.21 107.384 48.986 107.736 49.178 108.44C49.69 110.232 50.714 111.64 52.25 112.664C53.85 113.624 55.642 114.104 57.626 114.104C59.098 114.104 60.506 113.912 61.85 113.528C63.258 113.144 64.474 112.568 65.498 111.8C65.818 111.544 66.234 111.416 66.746 111.416C67.45 111.416 68.09 111.736 68.666 112.376C69.242 112.952 69.53 113.656 69.53 114.488C69.53 114.872 69.466 115.256 69.338 115.64C69.21 116.024 68.922 116.408 68.474 116.792C66.81 118.008 65.018 118.84 63.098 119.288C61.242 119.736 59.354 119.96 57.434 119.96ZM63.002 102.392C63.386 102.392 63.578 102.2 63.578 101.816C63.578 100.344 62.906 99.064 61.562 97.976C60.282 96.888 58.682 96.344 56.762 96.344C55.098 96.344 53.498 96.792 51.962 97.688C50.49 98.584 49.594 99.768 49.274 101.24C49.274 101.24 49.274 101.272 49.274 101.336C49.21 101.592 49.178 101.816 49.178 102.008C49.242 102.2 49.53 102.296 50.042 102.296L63.002 102.392ZM89.5678 119.96C86.8158 119.96 84.3518 119.32 82.1758 118.04C79.9998 116.76 78.3038 115 77.0878 112.76C75.8718 110.456 75.2638 107.896 75.2638 105.08C75.2638 102.328 75.8718 99.864 77.0878 97.688C78.3038 95.512 79.9998 93.816 82.1758 92.6C84.3518 91.32 86.8158 90.68 89.5678 90.68C91.3598 90.68 92.9598 91 94.3678 91.64C95.7758 92.216 96.9918 92.984 98.0157 93.944C98.1438 93.048 98.5278 92.376 99.1678 91.928C99.8078 91.416 100.512 91.16 101.28 91.16C102.112 91.16 102.848 91.448 103.488 92.024C104.192 92.536 104.544 93.336 104.544 94.424V116.984C104.544 117.944 104.192 118.68 103.488 119.192C102.848 119.704 102.112 119.96 101.28 119.96C100.448 119.96 99.6798 119.704 98.9758 119.192C98.3358 118.68 98.0157 117.944 98.0157 116.984V116.6C96.9918 117.624 95.7758 118.424 94.3678 119C92.9598 119.64 91.3598 119.96 89.5678 119.96ZM90.1438 114.008C92.5758 114.008 94.4958 113.208 95.9038 111.608C97.3118 109.944 98.0157 107.768 98.0157 105.08C98.0157 102.52 97.3118 100.472 95.9038 98.936C94.4958 97.4 92.5758 96.632 90.1438 96.632C87.6478 96.632 85.6318 97.4 84.0958 98.936C82.5598 100.472 81.7918 102.52 81.7918 105.08C81.7918 107.768 82.5598 109.944 84.0958 111.608C85.6318 113.208 87.6478 114.008 90.1438 114.008ZM115.042 119.96C114.21 119.96 113.442 119.704 112.738 119.192C112.098 118.68 111.778 117.944 111.778 116.984V80.504C111.778 79.416 112.098 78.616 112.738 78.104C113.442 77.528 114.21 77.24 115.042 77.24C115.874 77.24 116.61 77.528 117.25 78.104C117.954 78.616 118.306 79.416 118.306 80.504V116.984C118.306 117.944 117.954 118.68 117.25 119.192C116.61 119.704 115.874 119.96 115.042 119.96ZM137.063 119.96C134.567 119.96 132.519 119.192 130.919 117.656C129.319 116.12 128.519 113.816 128.519 110.744V98.552C128.519 97.912 128.199 97.592 127.559 97.592H125.831C124.999 97.592 124.295 97.336 123.719 96.824C123.143 96.248 122.855 95.544 122.855 94.712C122.855 93.816 123.143 93.08 123.719 92.504C124.295 91.928 124.999 91.64 125.831 91.64H127.559C128.199 91.64 128.519 91.32 128.519 90.68V82.616C128.519 81.72 128.807 81.016 129.383 80.504C130.023 79.928 130.791 79.64 131.687 79.64C132.647 79.64 133.415 79.928 133.991 80.504C134.631 81.016 134.951 81.72 134.951 82.616V90.68C134.951 91.32 135.271 91.64 135.911 91.64H141.095C141.863 91.64 142.535 91.928 143.111 92.504C143.687 93.08 143.975 93.816 143.975 94.712C143.975 95.544 143.687 96.248 143.111 96.824C142.599 97.336 141.895 97.592 140.999 97.592H135.911C135.271 97.592 134.951 97.912 134.951 98.552V109.88C134.951 112.568 136.039 113.912 138.215 113.912C138.855 113.912 139.527 113.816 140.231 113.624C140.935 113.432 141.415 113.336 141.671 113.336C142.567 113.336 143.239 113.624 143.687 114.2C144.199 114.776 144.455 115.448 144.455 116.216C144.455 116.792 144.295 117.368 143.975 117.944C143.655 118.456 143.143 118.84 142.439 119.096C141.735 119.352 140.839 119.544 139.751 119.672C138.727 119.864 137.831 119.96 137.063 119.96ZM152.542 119.96C151.71 119.96 150.942 119.704 150.238 119.192C149.598 118.68 149.278 117.944 149.278 116.984V80.504C149.278 79.416 149.598 78.616 150.238 78.104C150.942 77.528 151.71 77.24 152.542 77.24C153.374 77.24 154.11 77.528 154.75 78.104C155.454 78.616 155.806 79.416 155.806 80.504V94.232C156.83 93.144 158.174 92.28 159.838 91.64C161.566 91 163.166 90.68 164.638 90.68C167.966 90.68 170.782 91.832 173.086 94.136C175.454 96.44 176.638 99.832 176.638 104.312V116.984C176.638 117.944 176.286 118.68 175.582 119.192C174.878 119.704 174.142 119.96 173.374 119.96C172.542 119.96 171.774 119.704 171.07 119.192C170.43 118.68 170.109 117.944 170.109 116.984V104.888C170.109 102.072 169.47 99.992 168.19 98.648C166.974 97.304 165.342 96.632 163.294 96.632C160.542 96.632 158.59 97.496 157.438 99.224C156.35 100.888 155.806 102.744 155.806 104.792V116.984C155.806 117.944 155.454 118.68 154.75 119.192C154.11 119.704 153.374 119.96 152.542 119.96ZM6.584 196.96C5.752 196.96 4.984 196.64 4.28 196C3.64 195.424 3.32 194.72 3.32 193.888V162.88C3.32 161.152 3.896 159.84 5.048 158.944C6.264 158.048 7.544 157.6 8.888 157.6H18.296C20.472 157.6 22.488 158.08 24.344 159.04C26.264 159.936 27.8 161.248 28.952 162.976C30.104 164.64 30.68 166.656 30.68 169.024C30.68 171.264 30.008 173.408 28.664 175.456C27.384 177.44 25.72 178.784 23.672 179.488C24.568 179.872 25.4 180.512 26.168 181.408C27 182.24 27.736 183.36 28.376 184.768L31.832 192.544C32.024 192.928 32.12 193.344 32.12 193.792C32.12 194.944 31.736 195.776 30.968 196.288C30.264 196.8 29.528 197.056 28.76 197.056C27.48 197.056 26.584 196.448 26.072 195.232L22.136 186.016C21.304 184.16 20.248 182.88 18.968 182.176C17.688 181.472 16.28 181.12 14.744 181.12H12.344C10.68 181.12 9.848 182.08 9.848 184V193.888C9.848 194.72 9.528 195.424 8.888 196C8.248 196.64 7.48 196.96 6.584 196.96ZM11.96 175.36H17.336C18.936 175.36 20.472 174.848 21.944 173.824C23.48 172.736 24.248 171.2 24.248 169.216C24.248 167.296 23.544 165.856 22.136 164.896C20.792 163.936 19.32 163.456 17.72 163.456H12.248C10.648 163.456 9.848 164.256 9.848 165.856V173.152C9.848 174.624 10.552 175.36 11.96 175.36ZM49.3715 196.96C44.5715 196.96 40.8275 195.584 38.1395 192.832C35.4515 190.08 34.1075 186.368 34.1075 181.696C34.1075 177.6 35.4515 174.24 38.1395 171.616C40.8915 168.992 44.4115 167.68 48.6995 167.68C52.8595 167.68 56.1875 168.896 58.6835 171.328C61.1795 173.696 62.4275 176.64 62.4275 180.16C62.4275 181.568 62.0435 182.624 61.2755 183.328C60.5715 184.032 59.6435 184.384 58.4915 184.384H41.7875C41.1475 184.384 40.9235 184.736 41.1155 185.44C41.6275 187.232 42.6515 188.64 44.1875 189.664C45.7875 190.624 47.5795 191.104 49.5635 191.104C51.0355 191.104 52.4435 190.912 53.7875 190.528C55.1955 190.144 56.4115 189.568 57.4355 188.8C57.7555 188.544 58.1715 188.416 58.6835 188.416C59.3875 188.416 60.0275 188.736 60.6035 189.376C61.1795 189.952 61.4675 190.656 61.4675 191.488C61.4675 191.872 61.4035 192.256 61.2755 192.64C61.1475 193.024 60.8595 193.408 60.4115 193.792C58.7475 195.008 56.9555 195.84 55.0355 196.288C53.1795 196.736 51.2915 196.96 49.3715 196.96ZM54.9395 179.392C55.3235 179.392 55.5155 179.2 55.5155 178.816C55.5155 177.344 54.8435 176.064 53.4995 174.976C52.2195 173.888 50.6195 173.344 48.6995 173.344C47.0355 173.344 45.4355 173.792 43.8995 174.688C42.4275 175.584 41.5315 176.768 41.2115 178.24C41.2115 178.24 41.2115 178.272 41.2115 178.336C41.1475 178.592 41.1155 178.816 41.1155 179.008C41.1795 179.2 41.4675 179.296 41.9795 179.296L54.9395 179.392ZM78.1678 196.96C76.3118 196.96 74.4238 196.704 72.5038 196.192C70.5838 195.744 68.8878 195.008 67.4158 193.984C66.6478 193.28 66.2638 192.512 66.2638 191.68C66.2638 190.848 66.5838 190.112 67.2238 189.472C67.9278 188.832 68.6958 188.512 69.5278 188.512C69.9758 188.512 70.4238 188.64 70.8718 188.896C72.0238 189.6 73.3358 190.176 74.8078 190.624C76.3438 191.008 77.7838 191.2 79.1278 191.2C80.4078 191.2 81.4958 190.976 82.3918 190.528C83.3518 190.08 83.8318 189.344 83.8318 188.32C83.8318 187.296 83.3838 186.528 82.4878 186.016C81.5918 185.504 80.0558 185.12 77.8798 184.864C76.9838 184.736 75.8958 184.576 74.6158 184.384C73.3998 184.192 72.1838 183.84 70.9678 183.328C69.7518 182.816 68.7278 182.048 67.8958 181.024C67.0638 180 66.6478 178.624 66.6478 176.896C66.6478 174.08 67.6718 171.84 69.7198 170.176C71.8318 168.512 74.6478 167.68 78.1678 167.68C80.2158 167.68 82.1358 167.936 83.9278 168.448C85.7838 168.96 87.1598 169.6 88.0558 170.368C88.7598 170.944 89.1118 171.616 89.1118 172.384C89.1118 173.216 88.8238 173.952 88.2478 174.592C87.6718 175.232 86.9678 175.552 86.1358 175.552C85.6878 175.552 85.2718 175.456 84.8878 175.264C83.8638 174.688 82.7118 174.272 81.4318 174.016C80.2158 173.696 79.0318 173.536 77.8798 173.536C76.5358 173.536 75.3838 173.76 74.4238 174.208C73.5278 174.592 73.0798 175.232 73.0798 176.128C73.0798 176.768 73.3358 177.344 73.8478 177.856C74.4238 178.304 75.8638 178.688 78.1678 179.008C79.2558 179.136 80.4718 179.328 81.8158 179.584C83.2238 179.84 84.5678 180.256 85.8478 180.832C87.1278 181.344 88.1838 182.176 89.0157 183.328C89.8478 184.48 90.2638 186.048 90.2638 188.032C90.2638 190.08 89.6878 191.776 88.5358 193.12C87.3838 194.4 85.8798 195.36 84.0238 196C82.2318 196.64 80.2798 196.96 78.1678 196.96ZM111.004 196.96C109.212 196.96 107.612 196.64 106.204 196C104.796 195.424 103.58 194.624 102.556 193.6V206.944C102.556 207.904 102.204 208.64 101.5 209.152C100.86 209.664 100.124 209.92 99.2915 209.92C98.4595 209.92 97.6915 209.664 96.9875 209.152C96.3475 208.64 96.0275 207.904 96.0275 206.944V171.424C96.0275 170.336 96.3475 169.536 96.9875 169.024C97.6915 168.448 98.4595 168.16 99.2915 168.16C100.06 168.16 100.764 168.416 101.404 168.928C102.044 169.376 102.428 170.048 102.556 170.944C103.58 169.984 104.796 169.216 106.204 168.64C107.612 168 109.212 167.68 111.004 167.68C113.82 167.68 116.284 168.32 118.396 169.6C120.572 170.816 122.268 172.512 123.484 174.688C124.7 176.864 125.308 179.328 125.308 182.08C125.308 184.896 124.7 187.456 123.484 189.76C122.268 192 120.572 193.76 118.396 195.04C116.284 196.32 113.82 196.96 111.004 196.96ZM110.428 191.008C112.924 191.008 114.94 190.208 116.476 188.608C118.012 186.944 118.78 184.768 118.78 182.08C118.78 179.52 118.012 177.472 116.476 175.936C114.94 174.4 112.924 173.632 110.428 173.632C107.996 173.632 106.076 174.4 104.668 175.936C103.26 177.472 102.556 179.52 102.556 182.08C102.556 184.768 103.26 186.944 104.668 188.608C106.076 190.208 107.996 191.008 110.428 191.008ZM144.988 196.96C142.172 196.96 139.612 196.32 137.308 195.04C135.068 193.76 133.308 192 132.028 189.76C130.748 187.456 130.108 184.896 130.108 182.08C130.108 179.328 130.748 176.864 132.028 174.688C133.308 172.512 135.068 170.816 137.308 169.6C139.612 168.32 142.172 167.68 144.988 167.68C147.804 167.68 150.332 168.32 152.572 169.6C154.812 170.816 156.572 172.512 157.852 174.688C159.196 176.864 159.868 179.328 159.868 182.08C159.868 184.896 159.196 187.456 157.852 189.76C156.572 192 154.812 193.76 152.572 195.04C150.332 196.32 147.804 196.96 144.988 196.96ZM144.988 191.008C147.484 191.008 149.5 190.208 151.036 188.608C152.572 186.944 153.34 184.768 153.34 182.08C153.34 179.52 152.572 177.472 151.036 175.936C149.5 174.4 147.484 173.632 144.988 173.632C142.428 173.632 140.38 174.4 138.844 175.936C137.372 177.472 136.636 179.52 136.636 182.08C136.636 184.768 137.372 186.944 138.844 188.608C140.38 190.208 142.428 191.008 144.988 191.008ZM189.686 196.96C188.854 196.96 188.086 196.704 187.382 196.192C186.742 195.68 186.422 194.944 186.422 193.984V181.888C186.422 179.072 185.782 176.992 184.502 175.648C183.286 174.304 181.654 173.632 179.606 173.632C176.982 173.632 175.062 174.496 173.846 176.224C172.694 177.888 172.118 179.744 172.118 181.792V193.984C172.118 194.944 171.766 195.68 171.062 196.192C170.422 196.704 169.686 196.96 168.854 196.96C168.022 196.96 167.254 196.704 166.55 196.192C165.91 195.68 165.59 194.944 165.59 193.984V171.424C165.59 170.336 165.91 169.536 166.55 169.024C167.254 168.448 168.022 168.16 168.854 168.16C169.686 168.16 170.422 168.448 171.062 169.024C171.766 169.536 172.118 170.336 172.118 171.424C173.206 170.336 174.614 169.44 176.342 168.736C178.07 168.032 179.702 167.68 181.238 167.68C184.822 167.68 187.67 168.832 189.782 171.136C191.894 173.44 192.95 176.832 192.95 181.312V193.984C192.95 194.944 192.598 195.68 191.894 196.192C191.19 196.704 190.454 196.96 189.686 196.96ZM210.168 196.96C208.312 196.96 206.424 196.704 204.504 196.192C202.584 195.744 200.888 195.008 199.416 193.984C198.648 193.28 198.264 192.512 198.264 191.68C198.264 190.848 198.584 190.112 199.224 189.472C199.928 188.832 200.696 188.512 201.528 188.512C201.976 188.512 202.424 188.64 202.872 188.896C204.024 189.6 205.336 190.176 206.808 190.624C208.344 191.008 209.784 191.2 211.128 191.2C212.408 191.2 213.496 190.976 214.392 190.528C215.352 190.08 215.832 189.344 215.832 188.32C215.832 187.296 215.384 186.528 214.488 186.016C213.592 185.504 212.056 185.12 209.88 184.864C208.984 184.736 207.896 184.576 206.616 184.384C205.4 184.192 204.184 183.84 202.968 183.328C201.752 182.816 200.728 182.048 199.896 181.024C199.064 180 198.648 178.624 198.648 176.896C198.648 174.08 199.672 171.84 201.72 170.176C203.832 168.512 206.648 167.68 210.168 167.68C212.216 167.68 214.136 167.936 215.928 168.448C217.784 168.96 219.16 169.6 220.056 170.368C220.76 170.944 221.112 171.616 221.112 172.384C221.112 173.216 220.824 173.952 220.248 174.592C219.672 175.232 218.968 175.552 218.136 175.552C217.688 175.552 217.272 175.456 216.888 175.264C215.864 174.688 214.712 174.272 213.432 174.016C212.216 173.696 211.032 173.536 209.88 173.536C208.536 173.536 207.384 173.76 206.424 174.208C205.528 174.592 205.08 175.232 205.08 176.128C205.08 176.768 205.336 177.344 205.848 177.856C206.424 178.304 207.864 178.688 210.168 179.008C211.256 179.136 212.472 179.328 213.816 179.584C215.224 179.84 216.568 180.256 217.848 180.832C219.128 181.344 220.184 182.176 221.016 183.328C221.848 184.48 222.264 186.048 222.264 188.032C222.264 190.08 221.688 191.776 220.536 193.12C219.384 194.4 217.88 195.36 216.024 196C214.232 196.64 212.28 196.96 210.168 196.96ZM231.388 196.96C230.556 196.96 229.788 196.704 229.084 196.192C228.444 195.68 228.124 194.944 228.124 193.984V170.944C228.124 169.856 228.444 169.056 229.084 168.544C229.788 167.968 230.556 167.68 231.388 167.68C232.22 167.68 232.956 167.968 233.596 168.544C234.3 169.056 234.652 169.856 234.652 170.944V193.984C234.652 194.944 234.3 195.68 233.596 196.192C232.956 196.704 232.22 196.96 231.388 196.96ZM231.484 162.4C230.268 162.4 229.212 162.016 228.316 161.248C227.484 160.416 227.068 159.424 227.068 158.272C227.068 157.184 227.484 156.256 228.316 155.488C229.212 154.656 230.268 154.24 231.484 154.24C232.636 154.24 233.628 154.656 234.46 155.488C235.292 156.256 235.708 157.184 235.708 158.272C235.708 159.424 235.292 160.416 234.46 161.248C233.628 162.016 232.636 162.4 231.484 162.4ZM257.441 196.96C255.649 196.96 254.049 196.64 252.641 196C251.233 195.424 250.017 194.624 248.993 193.6V193.984C248.993 194.944 248.641 195.68 247.937 196.192C247.297 196.704 246.561 196.96 245.729 196.96C244.897 196.96 244.129 196.704 243.425 196.192C242.785 195.68 242.465 194.944 242.465 193.984V157.504C242.465 156.416 242.785 155.616 243.425 155.104C244.129 154.528 244.897 154.24 245.729 154.24C246.561 154.24 247.297 154.528 247.937 155.104C248.641 155.616 248.993 156.416 248.993 157.504V170.944C250.017 169.92 251.233 169.12 252.641 168.544C254.049 167.968 255.649 167.68 257.441 167.68C260.257 167.68 262.721 168.32 264.833 169.6C267.009 170.816 268.705 172.512 269.921 174.688C271.137 176.864 271.745 179.328 271.745 182.08C271.745 184.896 271.137 187.456 269.921 189.76C268.705 192 267.009 193.76 264.833 195.04C262.721 196.32 260.257 196.96 257.441 196.96ZM256.865 191.008C259.361 191.008 261.377 190.208 262.913 188.608C264.449 186.944 265.217 184.768 265.217 182.08C265.217 179.52 264.449 177.472 262.913 175.936C261.377 174.4 259.361 173.632 256.865 173.632C254.433 173.632 252.513 174.4 251.105 175.936C249.697 177.472 248.993 179.52 248.993 182.08C248.993 184.768 249.697 186.944 251.105 188.608C252.513 190.208 254.433 191.008 256.865 191.008ZM280.792 196.96C279.96 196.96 279.192 196.704 278.488 196.192C277.848 195.68 277.528 194.944 277.528 193.984V157.504C277.528 156.416 277.848 155.616 278.488 155.104C279.192 154.528 279.96 154.24 280.792 154.24C281.624 154.24 282.36 154.528 283 155.104C283.704 155.616 284.056 156.416 284.056 157.504V193.984C284.056 194.944 283.704 195.68 283 196.192C282.36 196.704 281.624 196.96 280.792 196.96ZM289.085 170.944C289.085 169.92 289.437 169.12 290.141 168.544C290.845 167.968 291.613 167.68 292.445 167.68C293.789 167.68 294.749 168.352 295.325 169.696L302.813 188.032C303.005 188.544 303.357 188.8 303.869 188.8C304.381 188.8 304.733 188.576 304.925 188.128L311.357 169.792C311.869 168.384 312.861 167.68 314.333 167.68C315.229 167.68 316.029 167.968 316.733 168.544C317.501 169.12 317.885 169.824 317.885 170.656C317.885 170.976 317.789 171.424 317.597 172L302.909 207.808C302.397 209.216 301.405 209.92 299.933 209.92C299.101 209.92 298.301 209.632 297.533 209.056C296.829 208.48 296.477 207.776 296.477 206.944C296.477 206.304 296.573 205.856 296.765 205.6L301.469 196C300.125 195.872 299.197 195.232 298.685 194.08L289.277 172.096C289.149 171.584 289.085 171.2 289.085 170.944Z" fill="#4DB648"/>
</svg>
