<svg width="16" height="16" viewBox="0 0 16 16" fill="none" xmlns="http://www.w3.org/2000/svg">
<path fill-rule="evenodd" clip-rule="evenodd" d="M4.59249 10.1678C4.30887 10.546 3.74164 10.8296 3.1744 10.8296C2.00842 10.8296 1 9.8212 1 8.56068C1 7.33167 2.00842 6.32324 3.1744 6.32324C3.74164 6.32324 4.30887 6.60687 4.59249 6.98503H4.62399V6.4493H5.56938V10.7036H4.62399V10.1678H4.59249ZM3.26894 9.97876C4.05676 9.97876 4.62399 9.3485 4.62399 8.56068C4.62399 7.80436 4.05676 7.1741 3.26894 7.1741C2.51263 7.1741 1.91388 7.80436 1.91388 8.56068C1.91388 9.3485 2.51263 9.97876 3.26894 9.97876Z" fill="#4DB648"/>
<path d="M7.74351 10.7038H6.82963V7.30045H6.35693V6.44959H6.82963V5H7.74351V6.44959H8.46831V7.30045H7.74351V10.7038Z" fill="#4DB648"/>
<path d="M11.4937 7.20562C11.3676 7.17411 11.2101 7.14259 11.084 7.14259C10.3277 7.14259 9.91802 7.74133 9.91802 8.49765V10.7036H9.00415V6.4493H9.91802V6.89049H9.98105C10.2331 6.51234 10.7374 6.32324 11.084 6.32324C11.2101 6.32324 11.3676 6.32325 11.4937 6.38627V7.20562Z" fill="#4DB648"/>
<path fill-rule="evenodd" clip-rule="evenodd" d="M12.5968 8.78127C12.6598 9.31699 13.0379 9.97876 13.8258 9.97876C14.4245 9.97876 14.7081 9.75817 14.9918 9.28547L15.7481 9.75817C15.3384 10.4515 14.7081 10.8296 13.8258 10.8296C12.5968 10.8296 11.6514 9.8212 11.6514 8.56068C11.6514 7.33167 12.5968 6.32324 13.8258 6.32324C15.0548 6.32324 16.0002 7.33167 16.0002 8.56068V8.78127H12.5968ZM15.0233 8.05646C14.8342 7.58376 14.4875 7.1741 13.8573 7.1741C13.227 7.1741 12.8489 7.58376 12.6913 8.05646H15.0233Z" fill="#4DB648"/>
</svg>
